<svg xmlns="http://www.w3.org/2000/svg" viewBox="0 0 232.1 232.1"><defs><style>.cls-1{fill:#fff;}</style></defs><title>minimalize</title><g id="Layer_2" data-name="Layer 2"><g id="Layer_1-2" data-name="Layer 1"><path class="cls-1" d="M116.05,232.1a116.05,116.05,0,1,1,116.05-116A116.18,116.18,0,0,1,116.05,232.1Zm0-223a107,107,0,1,0,107,107A107.12,107.12,0,0,0,116.05,9.06Z"/><rect class="cls-1" x="61.29" y="47.68" width="15.16" height="37.96" transform="translate(-26.96 68.22) rotate(-45)"/><polygon class="cls-1" points="87.28 47.88 100.89 98.68 50.09 85.07 87.28 47.88"/><rect class="cls-1" x="143.5" y="59.08" width="37.96" height="15.16" transform="translate(0.45 134.41) rotate(-45)"/><polygon class="cls-1" points="181.25 85.07 130.45 98.68 144.06 47.88 181.25 85.07"/><rect class="cls-1" x="155.28" y="148.08" width="15.16" height="37.96" transform="translate(-70.43 164.09) rotate(-45)"/><polygon class="cls-1" points="144.44 185.84 130.83 135.03 181.64 148.65 144.44 185.84"/><rect class="cls-1" x="50.27" y="159.48" width="37.96" height="15.16" transform="translate(-97.85 97.9) rotate(-45)"/><polygon class="cls-1" points="50.47 148.65 101.27 135.03 87.66 185.84 50.47 148.65"/></g></g></svg>