<svg xmlns="http://www.w3.org/2000/svg" viewBox="0 0 232.11 232.1"><defs><style>.cls-1{fill:#fff;}</style></defs><title>mute</title><g id="Layer_2" data-name="Layer 2"><g id="Layer_1-2" data-name="Layer 1"><path class="cls-1" d="M116.05,232.1a116.05,116.05,0,1,1,116.06-116A116.18,116.18,0,0,1,116.05,232.1Zm0-223a107,107,0,1,0,107,107A107.12,107.12,0,0,0,116.05,9.06Z"/><polygon class="cls-1" points="82.38 96.72 82.38 135.38 114.85 154.13 114.85 77.97 82.38 96.72"/><rect class="cls-1" x="60.45" y="96.72" width="17.6" height="39"/><rect class="cls-1" x="125.08" y="113.39" width="27.96" height="5.33" transform="translate(-41.32 132.41) rotate(-45.03)"/><rect class="cls-1" x="136.39" y="102.07" width="5.32" height="27.96" transform="translate(-41.32 132.43) rotate(-45.04)"/></g></g></svg>