<svg xmlns="http://www.w3.org/2000/svg" viewBox="0 0 232.11 232.1"><defs><style>.cls-1{fill:#fff;}</style></defs><title>volume3</title><g id="Layer_2" data-name="Layer 2"><g id="Layer_1-2" data-name="Layer 1"><path class="cls-1" d="M116.05,232.1a116.05,116.05,0,1,1,116.06-116A116.18,116.18,0,0,1,116.05,232.1Zm0-223a107,107,0,1,0,107,107A107.12,107.12,0,0,0,116.05,9.06Z"/><polygon class="cls-1" points="82.38 96.72 82.38 135.38 114.85 154.13 114.85 77.97 82.38 96.72"/><rect class="cls-1" x="60.45" y="96.72" width="17.6" height="39"/><path class="cls-1" d="M144.62,100.38,142,101.91a25.91,25.91,0,0,1,0,28.62l2.65,1.52a28.92,28.92,0,0,0,0-31.67Z"/><path class="cls-1" d="M136.66,105,134,106.52a16.73,16.73,0,0,1,0,19.4l2.67,1.54a19.84,19.84,0,0,0,0-22.48Z"/><path class="cls-1" d="M130,108.84l-2.67,1.54a9,9,0,0,1,0,11.67l2.67,1.54a12,12,0,0,0,0-14.75Z"/></g></g></svg>