<?xml version="1.0" standalone="no"?>
<!DOCTYPE svg PUBLIC "-//W3C//DTD SVG 20010904//EN"
 "http://www.w3.org/TR/2001/REC-SVG-20010904/DTD/svg10.dtd">
<svg version="1.0" xmlns="http://www.w3.org/2000/svg"
 width="700.000000pt" height="700.000000pt" viewBox="0 0 700.000000 700.000000"
 preserveAspectRatio="xMidYMid meet">
<metadata>
Created by potrace 1.11, written by Peter Selinger 2001-2013
</metadata>
<g transform="translate(0.000000,700.000000) scale(0.100000,-0.100000)"
fill="#000000" stroke="none">
<path d="M3278 6996 c-1 -2 -39 -6 -83 -10 -181 -14 -320 -37 -545 -92 -455
-110 -912 -333 -1300 -632 -47 -37 -87 -69 -90 -73 -3 -4 -23 -22 -45 -39 -56
-44 -247 -232 -330 -324 -332 -371 -601 -854 -740 -1331 -25 -86 -51 -184 -59
-225 -3 -14 -7 -36 -10 -50 -5 -23 -21 -108 -31 -169 -2 -13 -7 -45 -11 -70
-3 -25 -8 -57 -10 -71 -19 -120 -26 -556 -11 -714 8 -79 24 -203 32 -247 3
-13 7 -41 11 -64 3 -22 14 -80 25 -129 164 -742 562 -1413 1129 -1901 30 -26
66 -57 80 -69 76 -65 407 -296 425 -296 3 0 24 -12 47 -26 55 -35 295 -154
378 -189 139 -57 378 -139 470 -160 389 -91 543 -110 895 -110 116 0 251 4
300 8 654 59 1284 303 1810 701 44 33 91 70 104 81 217 181 400 372 562 585
35 47 66 87 69 90 3 3 26 37 52 75 163 246 307 531 398 790 73 210 149 520
166 685 3 36 8 68 10 71 24 42 24 755 -1 832 -2 7 -6 36 -10 66 -3 29 -7 56
-9 60 -2 3 -7 29 -10 56 -22 169 -104 459 -193 685 -278 704 -802 1323 -1448
1708 -197 117 -488 254 -664 311 -263 86 -428 125 -651 155 -63 9 -135 18
-160 22 -46 6 -545 15 -552 10z m490 -280 c119 -10 278 -34 402 -61 14 -3 36
-7 50 -10 88 -16 354 -98 455 -139 113 -47 157 -67 275 -126 213 -105 432
-250 625 -411 112 -95 292 -272 367 -363 28 -33 54 -63 57 -66 14 -11 131
-171 187 -255 149 -221 286 -503 372 -760 33 -98 68 -216 76 -255 3 -14 14
-70 26 -125 85 -411 87 -867 4 -1274 -78 -382 -220 -745 -419 -1067 -238 -384
-575 -735 -936 -975 -57 -38 -109 -72 -114 -77 -39 -32 -313 -172 -445 -227
-185 -77 -443 -159 -570 -180 -19 -3 -42 -8 -50 -10 -8 -2 -28 -7 -45 -10 -16
-2 -39 -7 -50 -9 -11 -2 -45 -7 -76 -10 -31 -4 -67 -9 -80 -11 -127 -25 -637
-25 -767 0 -11 2 -42 6 -69 10 -175 23 -359 67 -560 133 -164 55 -242 86 -412
169 -105 51 -315 172 -375 216 -6 4 -58 42 -116 84 -58 42 -107 79 -110 82 -3
4 -34 30 -70 60 -80 67 -328 316 -366 368 -15 21 -33 43 -38 48 -6 6 -31 37
-56 70 -267 351 -457 743 -563 1155 -30 118 -45 185 -51 230 -3 19 -8 46 -11
60 -3 14 -7 46 -10 71 -3 25 -7 55 -10 67 -17 92 -25 463 -12 632 71 951 584
1847 1370 2394 481 334 1058 538 1619 572 57 3 104 7 105 8 5 4 330 -3 391 -8z"/>
<path d="M2510 3345 c0 -718 3 -1305 6 -1305 3 0 96 52 207 117 111 64 211
121 222 127 11 6 27 16 35 22 8 7 39 25 68 40 29 16 61 34 70 39 9 6 44 25 77
44 33 19 143 83 245 142 196 113 806 466 862 497 18 11 116 67 217 126 101 58
185 106 188 106 2 0 19 10 38 23 l35 24 -38 20 c-20 11 -104 59 -185 107 -82
47 -167 97 -190 110 -23 13 -181 104 -352 203 -170 99 -330 191 -355 205 -25
14 -68 39 -96 55 -27 17 -70 41 -95 55 -24 14 -127 74 -229 133 -102 59 -203
117 -225 130 -22 12 -80 46 -130 75 -49 29 -106 62 -125 72 -19 11 -81 47
-137 79 -56 33 -104 59 -107 59 -4 0 -6 -587 -6 -1305z"/>
</g>
</svg>
