<svg xmlns="http://www.w3.org/2000/svg" viewBox="0 0 232.1 232.1"><defs><style>.cls-1{fill:#fff;}</style></defs><title>fullscreen</title><g id="Layer_2" data-name="Layer 2"><g id="Layer_1-2" data-name="Layer 1"><path class="cls-1" d="M116.05,232.1a116.05,116.05,0,1,1,116.05-116A116.18,116.18,0,0,1,116.05,232.1Zm0-223a107,107,0,1,0,107,107A107.12,107.12,0,0,0,116.05,9.06Z"/><rect class="cls-1" x="74.53" y="60.93" width="15.16" height="37.96" transform="translate(-32.45 81.46) rotate(-45)"/><polygon class="cls-1" points="63.7 98.68 50.09 47.88 100.89 61.49 63.7 98.68"/><rect class="cls-1" x="130.25" y="72.33" width="37.96" height="15.16" transform="translate(-12.79 128.92) rotate(-45)"/><polygon class="cls-1" points="130.45 61.49 181.25 47.88 167.64 98.68 130.45 61.49"/><rect class="cls-1" x="142.03" y="134.83" width="15.16" height="37.96" transform="translate(-64.94 150.84) rotate(-45)"/><polygon class="cls-1" points="168.03 135.03 181.64 185.84 130.83 172.22 168.03 135.03"/><rect class="cls-1" x="63.51" y="146.23" width="37.96" height="15.16" transform="translate(-84.6 103.38) rotate(-45)"/><polygon class="cls-1" points="101.27 172.23 50.47 185.84 64.08 135.03 101.27 172.23"/></g></g></svg>