<svg xmlns="http://www.w3.org/2000/svg" viewBox="0 0 232.1 232.1"><defs><style>.cls-1{fill:#fff;}</style></defs><title>playlist</title><g id="Layer_2" data-name="Layer 2"><g id="Layer_1-2" data-name="Layer 1"><path class="cls-1" d="M116.05,232.1a116.05,116.05,0,1,1,116.05-116A116.18,116.18,0,0,1,116.05,232.1Zm0-223a107,107,0,1,0,107,107A107.12,107.12,0,0,0,116.05,9.06Z"/><rect class="cls-1" x="59.45" y="53.65" width="5.04" height="26.42"/><rect class="cls-1" x="48.76" y="64.35" width="26.42" height="5.03"/><rect class="cls-1" x="85.4" y="64.35" width="102.18" height="5.03"/><rect class="cls-1" x="48.76" y="90.2" width="138.82" height="5.03"/><rect class="cls-1" x="48.76" y="114.09" width="138.82" height="5.03"/><rect class="cls-1" x="48.76" y="137.71" width="138.82" height="5.03"/><rect class="cls-1" x="48.76" y="161.33" width="138.82" height="5.03"/></g></g></svg>